<?xml version="1.0" encoding="UTF-8" standalone="no"?>
<!-- Created with Inkscape (http://www.inkscape.org/) -->

<svg
   xmlns:dc="http://purl.org/dc/elements/1.1/"
   xmlns:cc="http://creativecommons.org/ns#"
   xmlns:rdf="http://www.w3.org/1999/02/22-rdf-syntax-ns#"
   xmlns:svg="http://www.w3.org/2000/svg"
   xmlns="http://www.w3.org/2000/svg"
   xmlns:sodipodi="http://sodipodi.sourceforge.net/DTD/sodipodi-0.dtd"
   xmlns:inkscape="http://www.inkscape.org/namespaces/inkscape"
   width="744.09448819"
   height="1052.3622047"
   id="svg2"
   version="1.1"
   inkscape:version="0.48.4 r9939"
   sodipodi:docname="cosm_logo.svg">
  <defs
     id="defs4" />
  <sodipodi:namedview
     id="base"
     pagecolor="#ffffff"
     bordercolor="#666666"
     borderopacity="1.0"
     inkscape:pageopacity="0.0"
     inkscape:pageshadow="2"
     inkscape:zoom="0.7"
     inkscape:cx="488.19144"
     inkscape:cy="303.62727"
     inkscape:document-units="px"
     inkscape:current-layer="layer1"
     showgrid="false"
     inkscape:window-width="1366"
     inkscape:window-height="693"
     inkscape:window-x="0"
     inkscape:window-y="25"
     inkscape:window-maximized="1"
     showguides="true"
     inkscape:guide-bbox="true" />
  <metadata
     id="metadata7">
    <rdf:RDF>
      <cc:Work
         rdf:about="">
        <dc:format>image/svg+xml</dc:format>
        <dc:type
           rdf:resource="http://purl.org/dc/dcmitype/StillImage" />
        <dc:title />
      </cc:Work>
    </rdf:RDF>
  </metadata>
  <g
     inkscape:label="Layer 1"
     inkscape:groupmode="layer"
     id="layer1">
    <g
       id="g3195">
      <path
         d="m 181.30794,178.18222 c -0.87452,2.72627 -2.10905,5.24675 -3.70358,7.56147 -1.59465,2.28903 -3.48501,4.2694 -5.6711,5.94114 -2.16046,1.67177 -4.59093,2.98344 -7.2914,3.93505 -2.70056,0.9259 -5.59397,1.38883 -8.68026,1.38883 -2.7777,0 -5.36248,-0.36006 -7.75435,-1.08019 -2.3919,-0.74587 -4.59089,-1.76178 -6.59698,-3.04774 -1.98039,-1.31167 -3.74217,-2.85483 -5.2853,-4.62946 -1.54318,-1.80033 -2.842,-3.76787 -3.89648,-5.90257 -1.05448,-2.13468 -1.86464,-4.38512 -2.43047,-6.7513 -0.54011,-2.39188 -0.81014,-4.83521 -0.81014,-7.32999 0,-4.0636 0.63012,-7.8572 1.89036,-11.38077 1.26024,-3.54921 3.06057,-6.63552 5.40103,-9.25893 2.34044,-2.62332 5.1567,-4.6937 8.44879,-6.2112 3.29203,-1.51737 6.96988,-2.27608 11.03354,-2.27614 2.93196,6e-5 5.67107,0.41156 8.21731,1.23452 2.57188,0.79735 4.89948,1.90328 6.98278,3.31777 2.0832,1.41463 3.88356,3.08637 5.40103,5.01527 1.54312,1.90326 2.76476,3.97366 3.665,6.21119 0.23142,0.51443 0.21856,0.96451 -0.0385,1.35026 -0.25725,0.38582 -0.64304,0.57872 -1.15737,0.57868 l -3.39494,0 c -0.36011,4e-5 -0.64302,-0.077 -0.84874,-0.23148 -0.2058,-0.15426 -0.39868,-0.3986 -0.57867,-0.73299 -0.92595,-1.69742 -1.99329,-3.21486 -3.20206,-4.55231 -1.18312,-1.36307 -2.53338,-2.50758 -4.05078,-3.43352 -1.49175,-0.95155 -3.15064,-1.68456 -4.97667,-2.19899 -1.8261,-0.51433 -3.8322,-0.77153 -6.01831,-0.77159 -2.95772,6e-5 -5.70968,0.56589 -8.25586,1.69748 -2.52051,1.10598 -4.7195,2.66199 -6.597,4.66804 -1.85179,2.00615 -3.30493,4.38517 -4.35941,7.13709 -1.0545,2.752 -1.58173,5.76116 -1.58173,9.02745 0,3.34355 0.54008,6.46843 1.6203,9.37468 1.0802,2.88057 2.5462,5.38819 4.39801,7.52287 1.87748,2.10901 4.07648,3.76789 6.59698,4.97668 2.54618,1.20882 5.27242,1.81321 8.17871,1.81321 2.26327,0 4.37225,-0.36007 6.32694,-1.0802 1.95462,-0.72014 3.72925,-1.71032 5.32388,-2.97058 1.62027,-1.26023 3.0477,-2.73909 4.28226,-4.43657 1.2602,-1.72317 2.30182,-3.57496 3.12489,-5.55535 0.12858,-0.2829 0.28287,-0.52723 0.46295,-0.73301 0.2057,-0.20573 0.50148,-0.30862 0.88732,-0.30864 l 3.8193,0 c 0.30857,2e-5 0.55291,0.0772 0.73299,0.23148 0.17995,0.12859 0.30859,0.29579 0.3858,0.50154 0.10291,0.20576 0.14143,0.43723 0.11575,0.69441 -6e-5,0.2315 -0.0387,0.46296 -0.11575,0.69441"
         style="font-size:40px;font-style:normal;font-variant:normal;font-weight:normal;font-stretch:normal;line-height:125%;letter-spacing:0px;word-spacing:0px;fill:#000000;fill-opacity:1;stroke:none;font-family:Gravity;-inkscape-font-specification:Gravity"
         id="path3121"
         inkscape:connector-curvature="0" />
      <path
         d="m 272.41696,180.18834 c -0.0231,3.03487 -0.54177,5.61965 -1.55601,7.75435 -1.01432,2.10898 -2.37439,3.84503 -4.08021,5.20815 -1.68282,1.33739 -3.65378,2.31472 -5.91284,2.93198 -2.23608,0.61726 -4.5989,0.92589 -7.08851,0.92589 -1.29094,0 -2.6395,-0.12858 -4.04565,-0.38578 -1.40619,-0.2572 -2.81236,-0.6687 -4.21851,-1.23452 -1.38314,-0.56583 -2.73168,-1.28596 -4.04565,-2.16042 -1.31397,-0.87446 -2.50114,-1.91608 -3.56151,-3.12489 -1.06043,-1.23452 -1.97097,-2.64907 -2.73168,-4.24368 -0.73767,-1.59457 -1.25635,-3.39492 -1.55601,-5.40103 -0.0229,-0.46294 0.046,-0.83586 0.20746,-1.11879 0.18449,-0.30862 0.50714,-0.46294 0.96818,-0.46296 l 3.1812,0 c 0.25354,2e-5 0.48407,0.10291 0.69155,0.30863 0.23051,0.18014 0.38036,0.41154 0.44953,0.69443 0.36882,1.74892 1.01426,3.33065 1.93636,4.7452 0.92208,1.38885 2.02857,2.57194 3.31949,3.54926 1.2909,0.97733 2.73166,1.72318 4.32228,2.23757 1.59056,0.5144 3.23877,0.77159 4.94463,0.77157 1.68278,2e-5 3.331,-0.19298 4.94467,-0.57868 1.61363,-0.41151 3.04286,-1.02877 4.28769,-1.85179 1.26783,-0.84872 2.28211,-1.91606 3.04288,-3.20204 0.76068,-1.28594 1.14103,-2.82909 1.14107,-4.62946 -4e-5,-1.85177 -0.39193,-3.38207 -1.17566,-4.59089 -0.78379,-1.23451 -1.82115,-2.25041 -3.11203,-3.04773 -1.29093,-0.82299 -2.76626,-1.49168 -4.42599,-2.0061 -1.63672,-0.51437 -3.30799,-0.99016 -5.01383,-1.42742 -2.23607,-0.54007 -4.40294,-1.19591 -6.50067,-1.96752 -2.07469,-0.77154 -3.91885,-1.76173 -5.53248,-2.97058 -1.5906,-1.23448 -2.86998,-2.73906 -3.83816,-4.51371 -0.96821,-1.7746 -1.4523,-3.92215 -1.45228,-6.44268 -2e-5,-2.39185 0.44951,-4.50081 1.34854,-6.32694 0.89901,-1.85173 2.09774,-3.39488 3.59611,-4.62947 1.52141,-1.26018 3.26185,-2.21179 5.22129,-2.85483 1.98247,-0.66864 4.05714,-1.00298 6.22405,-1.00304 2.12076,6e-5 4.20699,0.28297 6.25865,0.84872 2.05158,0.56588 3.93032,1.44034 5.6362,2.62337 1.72887,1.18313 3.20419,2.70057 4.42599,4.55231 1.22173,1.82611 2.06312,3.99939 2.5242,6.51983 0.0691,0.38582 -0.0119,0.70731 -0.24204,0.96447 -0.23055,0.25723 -0.54175,0.38582 -0.9336,0.38578 l -3.00829,0 c -0.32277,4e-5 -0.58787,-0.11575 -0.79531,-0.34721 -0.18449,-0.25715 -0.33429,-0.57864 -0.44952,-0.96446 -0.53022,-1.62027 -1.2794,-2.98338 -2.24757,-4.08936 -0.9682,-1.13161 -2.05166,-2.04463 -3.25033,-2.7391 -1.17568,-0.69438 -2.4205,-1.19589 -3.73443,-1.50458 -1.29093,-0.30857 -2.52421,-0.4629 -3.69985,-0.46296 -1.19874,6e-5 -2.47812,0.14143 -3.83817,0.42438 -1.33704,0.28296 -2.58183,0.77163 -3.73444,1.466 -1.12954,0.66874 -2.07469,1.55606 -2.8354,2.66193 -0.73767,1.08026 -1.10649,2.43052 -1.10649,4.05078 0,1.31174 0.23051,2.46909 0.69157,3.47212 0.48407,1.00308 1.11801,1.8904 1.90178,2.66193 0.78378,0.77162 1.68281,1.44032 2.69709,2.00611 1.01429,0.54013 2.05162,1.01594 3.11203,1.4274 1.08342,0.38583 2.14382,0.70732 3.18118,0.96447 1.03732,0.25724 1.97093,0.47586 2.80083,0.65586 2.1899,0.46298 4.28765,1.05452 6.29321,1.77461 2.00549,0.69446 3.76897,1.62035 5.29043,2.77768 1.54444,1.15739 2.77774,2.6234 3.69986,4.39801 0.92204,1.74891 1.38308,3.92219 1.38312,6.51983"
         style="font-size:40px;font-style:normal;font-variant:normal;font-weight:normal;font-stretch:normal;line-height:125%;letter-spacing:0px;word-spacing:0px;fill:#000000;fill-opacity:1;stroke:none;font-family:Gravity;-inkscape-font-specification:Gravity"
         id="path3123"
         inkscape:connector-curvature="0" />
      <path
         d="m 333.32894,194.8483 c -6e-5,0.36006 -0.12858,0.68155 -0.3858,0.96447 -0.23152,0.25719 -0.54015,0.3858 -0.92589,0.3858 l -3.58783,0 c -0.38584,0 -0.70733,-0.12859 -0.96446,-0.3858 -0.23154,-0.25718 -0.34727,-0.56581 -0.34721,-0.9259 l 0.30863,-44.44286 c -6e-5,-0.2057 -0.0644,-0.37288 -0.19298,-0.50151 -0.10291,-0.12859 -0.23152,-0.20572 -0.38579,-0.23148 -0.15426,-0.0257 -0.30869,4e-5 -0.46295,0.0772 -0.12859,0.0772 -0.23152,0.2058 -0.30863,0.38579 l -17.32191,45.13729 c -0.12859,0.2572 -0.30867,0.4758 -0.54011,0.65584 -0.20578,0.15427 -0.45012,0.23148 -0.73299,0.23148 l -3.74215,0 c -0.6173,0 -1.04166,-0.29577 -1.2731,-0.88732 l -17.28334,-45.17587 c -0.0772,-0.17994 -0.19298,-0.29571 -0.3472,-0.34721 -0.15427,-0.077 -0.30865,-0.0899 -0.46296,-0.0385 -0.15427,0.0259 -0.29577,0.10291 -0.42436,0.23148 -0.10291,0.12858 -0.15427,0.28295 -0.15427,0.46293 l 0.30863,44.44286 c 0,0.36009 -0.12858,0.66872 -0.38578,0.92589 -0.23148,0.2572 -0.54011,0.38581 -0.92589,0.38581 l -3.58784,0 c -0.38579,0 -0.70728,-0.12859 -0.96447,-0.38581 -0.23148,-0.25717 -0.34721,-0.5658 -0.34721,-0.92589 l 0.38578,-53.66321 c 0,-0.36001 0.11575,-0.65578 0.34721,-0.8873 0.2572,-0.25713 0.56583,-0.38574 0.92589,-0.3858 l 5.90259,0 c 0.30861,6e-5 0.5658,0.0901 0.77157,0.27005 0.23145,0.18015 0.39864,0.39871 0.50153,0.65584 l 17.78484,43.97993 c 0.17995,0.46295 0.5015,0.70729 0.96447,0.73299 0.48864,2e-5 0.83587,-0.23146 1.04165,-0.69442 l 18.09347,-44.13423 c 0.10291,-0.23142 0.25716,-0.42432 0.46296,-0.57868 0.2057,-0.15427 0.45004,-0.23142 0.73299,-0.23148 l 5.90257,0 c 0.36002,6e-5 0.6558,0.12859 0.88731,0.3858 0.23142,0.23152 0.34717,0.52729 0.34721,0.8873 l 0.3858,53.62464"
         style="font-size:40px;font-style:normal;font-variant:normal;font-weight:normal;font-stretch:normal;line-height:125%;letter-spacing:0px;word-spacing:0px;fill:#000000;fill-opacity:1;stroke:none;font-family:Gravity;-inkscape-font-specification:Gravity"
         id="path3125"
         inkscape:connector-curvature="0" />
      <path
         style="fill:#7b74b9;fill-opacity:1"
         d="m 207.4429,148.61155 c -11.78075,0 -21.29553,9.39614 -21.29553,20.9869 0,11.59076 9.51478,20.98691 21.29553,20.98691 11.78076,0 21.35727,-9.39615 21.35727,-20.98691 0,-11.59076 -9.57651,-20.9869 -21.35727,-20.9869 z m 10.49346,9.38238 c 1.86281,0 3.33321,1.53213 3.33321,3.39494 0,1.86281 -1.4704,3.39494 -3.33321,3.39494 -1.86281,0 -3.39494,-1.53213 -3.39494,-3.39494 0,-1.86281 1.53213,-3.39494 3.39494,-3.39494 z m -20.36965,1.91351 c 2.92069,0 5.24673,2.32604 5.24673,5.24673 0,2.92068 -2.32604,5.30845 -5.24673,5.30845 -2.92068,0 -5.30845,-2.38777 -5.30845,-5.30845 0,-2.92069 2.38777,-5.24673 5.30845,-5.24673 z m 25.92501,10.37 c 1.14694,0 2.03696,0.89131 2.03696,1.97524 0,1.08393 -0.89002,1.91351 -2.03696,1.91351 -1.14695,0 -2.0987,-0.82958 -2.0987,-1.91351 0,-1.08393 0.95175,-1.97524 2.0987,-1.97524 z"
         id="path3127"
         inkscape:connector-curvature="0" />
    </g>
    <g
       id="g3201">
      <path
         inkscape:connector-curvature="0"
         id="path3131"
         style="font-size:40px;font-style:normal;font-variant:normal;font-weight:normal;font-stretch:normal;line-height:125%;letter-spacing:0px;word-spacing:0px;fill:#000000;fill-opacity:1;stroke:none;font-family:Gravity;-inkscape-font-specification:Gravity"
         d="m 181.30794,408.18222 c -0.87452,2.72627 -2.10905,5.24675 -3.70358,7.56147 -1.59465,2.28903 -3.48501,4.2694 -5.6711,5.94114 -2.16046,1.67177 -4.59093,2.98344 -7.2914,3.93505 -2.70056,0.9259 -5.59397,1.38883 -8.68026,1.38883 -2.7777,0 -5.36248,-0.36006 -7.75435,-1.08019 -2.3919,-0.74587 -4.59089,-1.76178 -6.59698,-3.04774 -1.98039,-1.31167 -3.74217,-2.85483 -5.2853,-4.62946 -1.54318,-1.80033 -2.842,-3.76787 -3.89648,-5.90257 -1.05448,-2.13468 -1.86464,-4.38512 -2.43047,-6.7513 -0.54011,-2.39188 -0.81014,-4.83521 -0.81014,-7.32999 0,-4.0636 0.63012,-7.8572 1.89036,-11.38077 1.26024,-3.54921 3.06057,-6.63552 5.40103,-9.25893 2.34044,-2.62332 5.1567,-4.6937 8.44879,-6.2112 3.29203,-1.51737 6.96988,-2.27608 11.03354,-2.27614 2.93196,6e-5 5.67107,0.41156 8.21731,1.23452 2.57188,0.79735 4.89948,1.90328 6.98278,3.31777 2.0832,1.41463 3.88356,3.08637 5.40103,5.01527 1.54312,1.90326 2.76476,3.97366 3.665,6.21119 0.23142,0.51443 0.21856,0.96451 -0.0385,1.35026 -0.25725,0.38582 -0.64304,0.57872 -1.15737,0.57868 l -3.39494,0 c -0.36011,4e-5 -0.64302,-0.077 -0.84874,-0.23148 -0.2058,-0.15426 -0.39868,-0.3986 -0.57867,-0.73299 -0.92595,-1.69742 -1.99329,-3.21486 -3.20206,-4.55231 -1.18312,-1.36307 -2.53338,-2.50758 -4.05078,-3.43352 -1.49175,-0.95155 -3.15064,-1.68456 -4.97667,-2.19899 -1.8261,-0.51433 -3.8322,-0.77153 -6.01831,-0.77159 -2.95772,6e-5 -5.70968,0.56589 -8.25586,1.69748 -2.52051,1.10598 -4.7195,2.66199 -6.597,4.66804 -1.85179,2.00615 -3.30493,4.38517 -4.35941,7.13709 -1.0545,2.752 -1.58173,5.76116 -1.58173,9.02745 0,3.34355 0.54008,6.46843 1.6203,9.37468 1.0802,2.88057 2.5462,5.38819 4.39801,7.52287 1.87748,2.10901 4.07648,3.76789 6.59698,4.97668 2.54618,1.20882 5.27242,1.81321 8.17871,1.81321 2.26327,0 4.37225,-0.36007 6.32694,-1.0802 1.95462,-0.72014 3.72925,-1.71032 5.32388,-2.97058 1.62027,-1.26023 3.0477,-2.73909 4.28226,-4.43657 1.2602,-1.72317 2.30182,-3.57496 3.12489,-5.55535 0.12858,-0.2829 0.28287,-0.52723 0.46295,-0.73301 0.2057,-0.20573 0.50148,-0.30862 0.88732,-0.30864 l 3.8193,0 c 0.30857,2e-5 0.55291,0.0772 0.73299,0.23148 0.17995,0.12859 0.30859,0.29579 0.3858,0.50154 0.10291,0.20576 0.14143,0.43723 0.11575,0.69441 -6e-5,0.2315 -0.0387,0.46296 -0.11575,0.69441" />
      <path
         inkscape:connector-curvature="0"
         id="path3133"
         style="font-size:40px;font-style:normal;font-variant:normal;font-weight:normal;font-stretch:normal;line-height:125%;letter-spacing:0px;word-spacing:0px;fill:#000000;fill-opacity:1;stroke:none;font-family:Gravity;-inkscape-font-specification:Gravity"
         d="m 272.41696,410.18834 c -0.0231,3.03487 -0.54177,5.61965 -1.55601,7.75435 -1.01432,2.10898 -2.37439,3.84503 -4.08021,5.20815 -1.68282,1.33739 -3.65378,2.31472 -5.91284,2.93198 -2.23608,0.61726 -4.5989,0.92589 -7.08851,0.92589 -1.29094,0 -2.6395,-0.12858 -4.04565,-0.38578 -1.40619,-0.2572 -2.81236,-0.6687 -4.21851,-1.23452 -1.38314,-0.56583 -2.73168,-1.28596 -4.04565,-2.16042 -1.31397,-0.87446 -2.50114,-1.91608 -3.56151,-3.12489 -1.06043,-1.23452 -1.97097,-2.64907 -2.73168,-4.24368 -0.73767,-1.59457 -1.25635,-3.39492 -1.55601,-5.40103 -0.0229,-0.46294 0.046,-0.83586 0.20746,-1.11879 0.18449,-0.30862 0.50714,-0.46294 0.96818,-0.46296 l 3.1812,0 c 0.25354,2e-5 0.48407,0.10291 0.69155,0.30863 0.23051,0.18014 0.38036,0.41154 0.44953,0.69443 0.36882,1.74892 1.01426,3.33065 1.93636,4.7452 0.92208,1.38885 2.02857,2.57194 3.31949,3.54926 1.2909,0.97733 2.73166,1.72318 4.32228,2.23757 1.59056,0.5144 3.23877,0.77159 4.94463,0.77157 1.68278,2e-5 3.331,-0.19298 4.94467,-0.57868 1.61363,-0.41151 3.04286,-1.02877 4.28769,-1.85179 1.26783,-0.84872 2.28211,-1.91606 3.04288,-3.20204 0.76068,-1.28594 1.14103,-2.82909 1.14107,-4.62946 -4e-5,-1.85177 -0.39193,-3.38207 -1.17566,-4.59089 -0.78379,-1.23451 -1.82115,-2.25041 -3.11203,-3.04773 -1.29093,-0.82299 -2.76626,-1.49168 -4.42599,-2.0061 -1.63672,-0.51437 -3.30799,-0.99016 -5.01383,-1.42742 -2.23607,-0.54007 -4.40294,-1.19591 -6.50067,-1.96752 -2.07469,-0.77154 -3.91885,-1.76173 -5.53248,-2.97058 -1.5906,-1.23448 -2.86998,-2.73906 -3.83816,-4.51371 -0.96821,-1.7746 -1.4523,-3.92215 -1.45228,-6.44268 -2e-5,-2.39185 0.44951,-4.50081 1.34854,-6.32694 0.89901,-1.85173 2.09774,-3.39488 3.59611,-4.62947 1.52141,-1.26018 3.26185,-2.21179 5.22129,-2.85483 1.98247,-0.66864 4.05714,-1.00298 6.22405,-1.00304 2.12076,6e-5 4.20699,0.28297 6.25865,0.84872 2.05158,0.56588 3.93032,1.44034 5.6362,2.62337 1.72887,1.18313 3.20419,2.70057 4.42599,4.55231 1.22173,1.82611 2.06312,3.99939 2.5242,6.51983 0.0691,0.38582 -0.0119,0.70731 -0.24204,0.96447 -0.23055,0.25723 -0.54175,0.38582 -0.9336,0.38578 l -3.00829,0 c -0.32277,4e-5 -0.58787,-0.11575 -0.79531,-0.34721 -0.18449,-0.25715 -0.33429,-0.57864 -0.44952,-0.96446 -0.53022,-1.62027 -1.2794,-2.98338 -2.24757,-4.08936 -0.9682,-1.13161 -2.05166,-2.04463 -3.25033,-2.7391 -1.17568,-0.69438 -2.4205,-1.19589 -3.73443,-1.50458 -1.29093,-0.30857 -2.52421,-0.4629 -3.69985,-0.46296 -1.19874,6e-5 -2.47812,0.14143 -3.83817,0.42438 -1.33704,0.28296 -2.58183,0.77163 -3.73444,1.466 -1.12954,0.66874 -2.07469,1.55606 -2.8354,2.66193 -0.73767,1.08026 -1.10649,2.43052 -1.10649,4.05078 0,1.31174 0.23051,2.46909 0.69157,3.47212 0.48407,1.00308 1.11801,1.8904 1.90178,2.66193 0.78378,0.77162 1.68281,1.44032 2.69709,2.00611 1.01429,0.54013 2.05162,1.01594 3.11203,1.4274 1.08342,0.38583 2.14382,0.70732 3.18118,0.96447 1.03732,0.25724 1.97093,0.47586 2.80083,0.65586 2.1899,0.46298 4.28765,1.05452 6.29321,1.77461 2.00549,0.69446 3.76897,1.62035 5.29043,2.77768 1.54444,1.15739 2.77774,2.6234 3.69986,4.39801 0.92204,1.74891 1.38308,3.92219 1.38312,6.51983" />
      <path
         inkscape:connector-curvature="0"
         id="path3135"
         style="font-size:40px;font-style:normal;font-variant:normal;font-weight:normal;font-stretch:normal;line-height:125%;letter-spacing:0px;word-spacing:0px;fill:#000000;fill-opacity:1;stroke:none;font-family:Gravity;-inkscape-font-specification:Gravity"
         d="m 333.32894,424.8483 c -6e-5,0.36006 -0.12858,0.68155 -0.3858,0.96447 -0.23152,0.25719 -0.54015,0.3858 -0.92589,0.3858 l -3.58783,0 c -0.38584,0 -0.70733,-0.12859 -0.96446,-0.3858 -0.23154,-0.25718 -0.34727,-0.56581 -0.34721,-0.9259 l 0.30863,-44.44286 c -6e-5,-0.2057 -0.0644,-0.37288 -0.19298,-0.50151 -0.10291,-0.12859 -0.23152,-0.20572 -0.38579,-0.23148 -0.15426,-0.0257 -0.30869,4e-5 -0.46295,0.0772 -0.12859,0.0772 -0.23152,0.2058 -0.30863,0.38579 l -17.32191,45.13729 c -0.12859,0.2572 -0.30867,0.4758 -0.54011,0.65584 -0.20578,0.15427 -0.45012,0.23148 -0.73299,0.23148 l -3.74215,0 c -0.6173,0 -1.04166,-0.29577 -1.2731,-0.88732 l -17.28334,-45.17587 c -0.0772,-0.17994 -0.19298,-0.29571 -0.3472,-0.34721 -0.15427,-0.077 -0.30865,-0.0899 -0.46296,-0.0385 -0.15427,0.0259 -0.29577,0.10291 -0.42436,0.23148 -0.10291,0.12858 -0.15427,0.28295 -0.15427,0.46293 l 0.30863,44.44286 c 0,0.36009 -0.12858,0.66872 -0.38578,0.92589 -0.23148,0.2572 -0.54011,0.38581 -0.92589,0.38581 l -3.58784,0 c -0.38579,0 -0.70728,-0.12859 -0.96447,-0.38581 -0.23148,-0.25717 -0.34721,-0.5658 -0.34721,-0.92589 l 0.38578,-53.66321 c 0,-0.36001 0.11575,-0.65578 0.34721,-0.8873 0.2572,-0.25713 0.56583,-0.38574 0.92589,-0.3858 l 5.90259,0 c 0.30861,6e-5 0.5658,0.0901 0.77157,0.27005 0.23145,0.18015 0.39864,0.39871 0.50153,0.65584 l 17.78484,43.97993 c 0.17995,0.46295 0.5015,0.70729 0.96447,0.73299 0.48864,2e-5 0.83587,-0.23146 1.04165,-0.69442 l 18.09347,-44.13423 c 0.10291,-0.23142 0.25716,-0.42432 0.46296,-0.57868 0.2057,-0.15427 0.45004,-0.23142 0.73299,-0.23148 l 5.90257,0 c 0.36002,6e-5 0.6558,0.12859 0.88731,0.3858 0.23142,0.23152 0.34717,0.52729 0.34721,0.8873 l 0.3858,53.62464" />
      <path
         inkscape:connector-curvature="0"
         id="path3137"
         d="m 207.4429,378.61155 c -11.78075,0 -21.29553,9.39614 -21.29553,20.9869 0,11.59076 9.51478,20.98691 21.29553,20.98691 11.78076,0 21.35727,-9.39615 21.35727,-20.98691 0,-11.59076 -9.57651,-20.9869 -21.35727,-20.9869 z m 10.49346,9.38238 c 1.86281,0 3.33321,1.53213 3.33321,3.39494 0,1.86281 -1.4704,3.39494 -3.33321,3.39494 -1.86281,0 -3.39494,-1.53213 -3.39494,-3.39494 0,-1.86281 1.53213,-3.39494 3.39494,-3.39494 z m -20.36965,1.91351 c 2.92069,0 5.24673,2.32604 5.24673,5.24673 0,2.92068 -2.32604,5.30845 -5.24673,5.30845 -2.92068,0 -5.30845,-2.38777 -5.30845,-5.30845 0,-2.92069 2.38777,-5.24673 5.30845,-5.24673 z m 25.92501,10.37 c 1.14694,0 2.03696,0.89131 2.03696,1.97524 0,1.08393 -0.89002,1.91351 -2.03696,1.91351 -1.14695,0 -2.0987,-0.82958 -2.0987,-1.91351 0,-1.08393 0.95175,-1.97524 2.0987,-1.97524 z"
         style="fill:#000000;fill-opacity:1" />
    </g>
    <path
       style="fill:#7b74b9;fill-opacity:1"
       d="m 607.4429,148.61155 c -11.78075,0 -21.29553,9.39614 -21.29553,20.9869 0,11.59076 9.51478,20.98691 21.29553,20.98691 11.78076,0 21.35727,-9.39615 21.35727,-20.98691 0,-11.59076 -9.57651,-20.9869 -21.35727,-20.9869 z m 10.49346,9.38238 c 1.86281,0 3.33321,1.53213 3.33321,3.39494 0,1.86281 -1.4704,3.39494 -3.33321,3.39494 -1.86281,0 -3.39494,-1.53213 -3.39494,-3.39494 0,-1.86281 1.53213,-3.39494 3.39494,-3.39494 z m -20.36965,1.91351 c 2.92069,0 5.24673,2.32604 5.24673,5.24673 0,2.92068 -2.32604,5.30845 -5.24673,5.30845 -2.92068,0 -5.30845,-2.38777 -5.30845,-5.30845 0,-2.92069 2.38777,-5.24673 5.30845,-5.24673 z m 25.92501,10.37 c 1.14694,0 2.03696,0.89131 2.03696,1.97524 0,1.08393 -0.89002,1.91351 -2.03696,1.91351 -1.14695,0 -2.0987,-0.82958 -2.0987,-1.91351 0,-1.08393 0.95175,-1.97524 2.0987,-1.97524 z"
       id="path3147"
       inkscape:connector-curvature="0" />
    <path
       inkscape:connector-curvature="0"
       id="path3149"
       d="m 607.4429,378.61155 c -11.78075,0 -21.29553,9.39614 -21.29553,20.9869 0,11.59076 9.51478,20.98691 21.29553,20.98691 11.78076,0 21.35727,-9.39615 21.35727,-20.98691 0,-11.59076 -9.57651,-20.9869 -21.35727,-20.9869 z m 10.49346,9.38238 c 1.86281,0 3.33321,1.53213 3.33321,3.39494 0,1.86281 -1.4704,3.39494 -3.33321,3.39494 -1.86281,0 -3.39494,-1.53213 -3.39494,-3.39494 0,-1.86281 1.53213,-3.39494 3.39494,-3.39494 z m -20.36965,1.91351 c 2.92069,0 5.24673,2.32604 5.24673,5.24673 0,2.92068 -2.32604,5.30845 -5.24673,5.30845 -2.92068,0 -5.30845,-2.38777 -5.30845,-5.30845 0,-2.92069 2.38777,-5.24673 5.30845,-5.24673 z m 25.92501,10.37 c 1.14694,0 2.03696,0.89131 2.03696,1.97524 0,1.08393 -0.89002,1.91351 -2.03696,1.91351 -1.14695,0 -2.0987,-0.82958 -2.0987,-1.91351 0,-1.08393 0.95175,-1.97524 2.0987,-1.97524 z"
       style="fill:#000000;fill-opacity:1" />
    <rect
       style="fill:#000000;fill-opacity:1"
       id="rect3151"
       width="752.85712"
       height="538.57141"
       x="-2.8571429"
       y="513.79077" />
    <g
       id="g3183">
      <path
         inkscape:connector-curvature="0"
         id="path3153"
         style="font-size:40px;font-style:normal;font-variant:normal;font-weight:normal;font-stretch:normal;line-height:125%;letter-spacing:0px;word-spacing:0px;fill:#ffffff;fill-opacity:1;stroke:none;font-family:Gravity;-inkscape-font-specification:Gravity"
         d="m 181.30794,678.18222 c -0.87452,2.72627 -2.10905,5.24675 -3.70358,7.56147 -1.59465,2.28903 -3.48501,4.2694 -5.6711,5.94114 -2.16046,1.67177 -4.59093,2.98344 -7.2914,3.93505 -2.70056,0.9259 -5.59397,1.38883 -8.68026,1.38883 -2.7777,0 -5.36248,-0.36006 -7.75435,-1.08019 -2.3919,-0.74587 -4.59089,-1.76178 -6.59698,-3.04774 -1.98039,-1.31167 -3.74217,-2.85483 -5.2853,-4.62946 -1.54318,-1.80033 -2.842,-3.76787 -3.89648,-5.90257 -1.05448,-2.13468 -1.86464,-4.38512 -2.43047,-6.7513 -0.54011,-2.39188 -0.81014,-4.83521 -0.81014,-7.32999 0,-4.0636 0.63012,-7.8572 1.89036,-11.38077 1.26024,-3.54921 3.06057,-6.63552 5.40103,-9.25893 2.34044,-2.62332 5.1567,-4.6937 8.44879,-6.2112 3.29203,-1.51737 6.96988,-2.27608 11.03354,-2.27614 2.93196,6e-5 5.67107,0.41156 8.21731,1.23452 2.57188,0.79735 4.89948,1.90328 6.98278,3.31777 2.0832,1.41463 3.88356,3.08637 5.40103,5.01527 1.54312,1.90326 2.76476,3.97366 3.665,6.21119 0.23142,0.51443 0.21856,0.96451 -0.0385,1.35026 -0.25725,0.38582 -0.64304,0.57872 -1.15737,0.57868 l -3.39494,0 c -0.36011,4e-5 -0.64302,-0.077 -0.84874,-0.23148 -0.2058,-0.15426 -0.39868,-0.3986 -0.57867,-0.73299 -0.92595,-1.69742 -1.99329,-3.21486 -3.20206,-4.55231 -1.18312,-1.36307 -2.53338,-2.50758 -4.05078,-3.43352 -1.49175,-0.95155 -3.15064,-1.68456 -4.97667,-2.19899 -1.8261,-0.51433 -3.8322,-0.77153 -6.01831,-0.77159 -2.95772,6e-5 -5.70968,0.56589 -8.25586,1.69748 -2.52051,1.10598 -4.7195,2.66199 -6.597,4.66804 -1.85179,2.00615 -3.30493,4.38517 -4.35941,7.13709 -1.0545,2.752 -1.58173,5.76116 -1.58173,9.02745 0,3.34355 0.54008,6.46843 1.6203,9.37468 1.0802,2.88057 2.5462,5.38819 4.39801,7.52287 1.87748,2.10901 4.07648,3.76789 6.59698,4.97668 2.54618,1.20882 5.27242,1.81321 8.17871,1.81321 2.26327,0 4.37225,-0.36007 6.32694,-1.0802 1.95462,-0.72014 3.72925,-1.71032 5.32388,-2.97058 1.62027,-1.26023 3.0477,-2.73909 4.28226,-4.43657 1.2602,-1.72317 2.30182,-3.57496 3.12489,-5.55535 0.12858,-0.2829 0.28287,-0.52723 0.46295,-0.73301 0.2057,-0.20573 0.50148,-0.30862 0.88732,-0.30864 l 3.8193,0 c 0.30857,2e-5 0.55291,0.0772 0.73299,0.23148 0.17995,0.12859 0.30859,0.29579 0.3858,0.50154 0.10291,0.20576 0.14143,0.43723 0.11575,0.69441 -6e-5,0.2315 -0.0387,0.46296 -0.11575,0.69441" />
      <path
         inkscape:connector-curvature="0"
         id="path3155"
         style="font-size:40px;font-style:normal;font-variant:normal;font-weight:normal;font-stretch:normal;line-height:125%;letter-spacing:0px;word-spacing:0px;fill:#ffffff;fill-opacity:1;stroke:none;font-family:Gravity;-inkscape-font-specification:Gravity"
         d="m 272.41696,680.18834 c -0.0231,3.03487 -0.54177,5.61965 -1.55601,7.75435 -1.01432,2.10898 -2.37439,3.84503 -4.08021,5.20815 -1.68282,1.33739 -3.65378,2.31472 -5.91284,2.93198 -2.23608,0.61726 -4.5989,0.92589 -7.08851,0.92589 -1.29094,0 -2.6395,-0.12858 -4.04565,-0.38578 -1.40619,-0.2572 -2.81236,-0.6687 -4.21851,-1.23452 -1.38314,-0.56583 -2.73168,-1.28596 -4.04565,-2.16042 -1.31397,-0.87446 -2.50114,-1.91608 -3.56151,-3.12489 -1.06043,-1.23452 -1.97097,-2.64907 -2.73168,-4.24368 -0.73767,-1.59457 -1.25635,-3.39492 -1.55601,-5.40103 -0.0229,-0.46294 0.046,-0.83586 0.20746,-1.11879 0.18449,-0.30862 0.50714,-0.46294 0.96818,-0.46296 l 3.1812,0 c 0.25354,2e-5 0.48407,0.10291 0.69155,0.30863 0.23051,0.18014 0.38036,0.41154 0.44953,0.69443 0.36882,1.74892 1.01426,3.33065 1.93636,4.7452 0.92208,1.38885 2.02857,2.57194 3.31949,3.54926 1.2909,0.97733 2.73166,1.72318 4.32228,2.23757 1.59056,0.5144 3.23877,0.77159 4.94463,0.77157 1.68278,2e-5 3.331,-0.19298 4.94467,-0.57868 1.61363,-0.41151 3.04286,-1.02877 4.28769,-1.85179 1.26783,-0.84872 2.28211,-1.91606 3.04288,-3.20204 0.76068,-1.28594 1.14103,-2.82909 1.14107,-4.62946 -4e-5,-1.85177 -0.39193,-3.38207 -1.17566,-4.59089 -0.78379,-1.23451 -1.82115,-2.25041 -3.11203,-3.04773 -1.29093,-0.82299 -2.76626,-1.49168 -4.42599,-2.0061 -1.63672,-0.51437 -3.30799,-0.99016 -5.01383,-1.42742 -2.23607,-0.54007 -4.40294,-1.19591 -6.50067,-1.96752 -2.07469,-0.77154 -3.91885,-1.76173 -5.53248,-2.97058 -1.5906,-1.23448 -2.86998,-2.73906 -3.83816,-4.51371 -0.96821,-1.7746 -1.4523,-3.92215 -1.45228,-6.44268 -2e-5,-2.39185 0.44951,-4.50081 1.34854,-6.32694 0.89901,-1.85173 2.09774,-3.39488 3.59611,-4.62947 1.52141,-1.26018 3.26185,-2.21179 5.22129,-2.85483 1.98247,-0.66864 4.05714,-1.00298 6.22405,-1.00304 2.12076,6e-5 4.20699,0.28297 6.25865,0.84872 2.05158,0.56588 3.93032,1.44034 5.6362,2.62337 1.72887,1.18313 3.20419,2.70057 4.42599,4.55231 1.22173,1.82611 2.06312,3.99939 2.5242,6.51983 0.0691,0.38582 -0.0119,0.70731 -0.24204,0.96447 -0.23055,0.25723 -0.54175,0.38582 -0.9336,0.38578 l -3.00829,0 c -0.32277,4e-5 -0.58787,-0.11575 -0.79531,-0.34721 -0.18449,-0.25715 -0.33429,-0.57864 -0.44952,-0.96446 -0.53022,-1.62027 -1.2794,-2.98338 -2.24757,-4.08936 -0.9682,-1.13161 -2.05166,-2.04463 -3.25033,-2.7391 -1.17568,-0.69438 -2.4205,-1.19589 -3.73443,-1.50458 -1.29093,-0.30857 -2.52421,-0.4629 -3.69985,-0.46296 -1.19874,6e-5 -2.47812,0.14143 -3.83817,0.42438 -1.33704,0.28296 -2.58183,0.77163 -3.73444,1.466 -1.12954,0.66874 -2.07469,1.55606 -2.8354,2.66193 -0.73767,1.08026 -1.10649,2.43052 -1.10649,4.05078 0,1.31174 0.23051,2.46909 0.69157,3.47212 0.48407,1.00308 1.11801,1.8904 1.90178,2.66193 0.78378,0.77162 1.68281,1.44032 2.69709,2.00611 1.01429,0.54013 2.05162,1.01594 3.11203,1.4274 1.08342,0.38583 2.14382,0.70732 3.18118,0.96447 1.03732,0.25724 1.97093,0.47586 2.80083,0.65586 2.1899,0.46298 4.28765,1.05452 6.29321,1.77461 2.00549,0.69446 3.76897,1.62035 5.29043,2.77768 1.54444,1.15739 2.77774,2.6234 3.69986,4.39801 0.92204,1.74891 1.38308,3.92219 1.38312,6.51983" />
      <path
         inkscape:connector-curvature="0"
         id="path3157"
         style="font-size:40px;font-style:normal;font-variant:normal;font-weight:normal;font-stretch:normal;line-height:125%;letter-spacing:0px;word-spacing:0px;fill:#ffffff;fill-opacity:1;stroke:none;font-family:Gravity;-inkscape-font-specification:Gravity"
         d="m 333.32894,694.8483 c -6e-5,0.36006 -0.12858,0.68155 -0.3858,0.96447 -0.23152,0.25719 -0.54015,0.3858 -0.92589,0.3858 l -3.58783,0 c -0.38584,0 -0.70733,-0.12859 -0.96446,-0.3858 -0.23154,-0.25718 -0.34727,-0.56581 -0.34721,-0.9259 l 0.30863,-44.44286 c -6e-5,-0.2057 -0.0644,-0.37288 -0.19298,-0.50151 -0.10291,-0.12859 -0.23152,-0.20572 -0.38579,-0.23148 -0.15426,-0.0257 -0.30869,4e-5 -0.46295,0.0772 -0.12859,0.0772 -0.23152,0.2058 -0.30863,0.38579 l -17.32191,45.13729 c -0.12859,0.2572 -0.30867,0.4758 -0.54011,0.65584 -0.20578,0.15427 -0.45012,0.23148 -0.73299,0.23148 l -3.74215,0 c -0.6173,0 -1.04166,-0.29577 -1.2731,-0.88732 l -17.28334,-45.17587 c -0.0772,-0.17994 -0.19298,-0.29571 -0.3472,-0.34721 -0.15427,-0.077 -0.30865,-0.0899 -0.46296,-0.0385 -0.15427,0.0259 -0.29577,0.10291 -0.42436,0.23148 -0.10291,0.12858 -0.15427,0.28295 -0.15427,0.46293 l 0.30863,44.44286 c 0,0.36009 -0.12858,0.66872 -0.38578,0.92589 -0.23148,0.2572 -0.54011,0.38581 -0.92589,0.38581 l -3.58784,0 c -0.38579,0 -0.70728,-0.12859 -0.96447,-0.38581 -0.23148,-0.25717 -0.34721,-0.5658 -0.34721,-0.92589 l 0.38578,-53.66321 c 0,-0.36001 0.11575,-0.65578 0.34721,-0.8873 0.2572,-0.25713 0.56583,-0.38574 0.92589,-0.3858 l 5.90259,0 c 0.30861,6e-5 0.5658,0.0901 0.77157,0.27005 0.23145,0.18015 0.39864,0.39871 0.50153,0.65584 l 17.78484,43.97993 c 0.17995,0.46295 0.5015,0.70729 0.96447,0.73299 0.48864,2e-5 0.83587,-0.23146 1.04165,-0.69442 l 18.09347,-44.13423 c 0.10291,-0.23142 0.25716,-0.42432 0.46296,-0.57868 0.2057,-0.15427 0.45004,-0.23142 0.73299,-0.23148 l 5.90257,0 c 0.36002,6e-5 0.6558,0.12859 0.88731,0.3858 0.23142,0.23152 0.34717,0.52729 0.34721,0.8873 l 0.3858,53.62464" />
      <path
         inkscape:connector-curvature="0"
         id="path3159"
         d="m 207.4429,648.61155 c -11.78075,0 -21.29553,9.39614 -21.29553,20.9869 0,11.59076 9.51478,20.98691 21.29553,20.98691 11.78076,0 21.35727,-9.39615 21.35727,-20.98691 0,-11.59076 -9.57651,-20.9869 -21.35727,-20.9869 z m 10.49346,9.38238 c 1.86281,0 3.33321,1.53213 3.33321,3.39494 0,1.86281 -1.4704,3.39494 -3.33321,3.39494 -1.86281,0 -3.39494,-1.53213 -3.39494,-3.39494 0,-1.86281 1.53213,-3.39494 3.39494,-3.39494 z m -20.36965,1.91351 c 2.92069,0 5.24673,2.32604 5.24673,5.24673 0,2.92068 -2.32604,5.30845 -5.24673,5.30845 -2.92068,0 -5.30845,-2.38777 -5.30845,-5.30845 0,-2.92069 2.38777,-5.24673 5.30845,-5.24673 z m 25.92501,10.37 c 1.14694,0 2.03696,0.89131 2.03696,1.97524 0,1.08393 -0.89002,1.91351 -2.03696,1.91351 -1.14695,0 -2.0987,-0.82958 -2.0987,-1.91351 0,-1.08393 0.95175,-1.97524 2.0987,-1.97524 z"
         style="fill:#7b74b9;fill-opacity:1" />
    </g>
    <g
       id="g3189">
      <path
         d="m 181.30794,908.18222 c -0.87452,2.72627 -2.10905,5.24675 -3.70358,7.56147 -1.59465,2.28903 -3.48501,4.2694 -5.6711,5.94114 -2.16046,1.67177 -4.59093,2.98344 -7.2914,3.93505 -2.70056,0.9259 -5.59397,1.38883 -8.68026,1.38883 -2.7777,0 -5.36248,-0.36006 -7.75435,-1.08019 -2.3919,-0.74587 -4.59089,-1.76178 -6.59698,-3.04774 -1.98039,-1.31167 -3.74217,-2.85483 -5.2853,-4.62946 -1.54318,-1.80033 -2.842,-3.76787 -3.89648,-5.90257 -1.05448,-2.13468 -1.86464,-4.38512 -2.43047,-6.7513 -0.54011,-2.39188 -0.81014,-4.83521 -0.81014,-7.32999 0,-4.0636 0.63012,-7.8572 1.89036,-11.38077 1.26024,-3.54921 3.06057,-6.63552 5.40103,-9.25893 2.34044,-2.62332 5.1567,-4.6937 8.44879,-6.2112 3.29203,-1.51737 6.96988,-2.27608 11.03354,-2.27614 2.93196,6e-5 5.67107,0.41156 8.21731,1.23452 2.57188,0.79735 4.89948,1.90328 6.98278,3.31777 2.0832,1.41463 3.88356,3.08637 5.40103,5.01527 1.54312,1.90326 2.76476,3.97366 3.665,6.21119 0.23142,0.51443 0.21856,0.96451 -0.0385,1.35026 -0.25725,0.38582 -0.64304,0.57872 -1.15737,0.57868 l -3.39494,0 c -0.36011,4e-5 -0.64302,-0.077 -0.84874,-0.23148 -0.2058,-0.15426 -0.39868,-0.3986 -0.57867,-0.73299 -0.92595,-1.69742 -1.99329,-3.21486 -3.20206,-4.55231 -1.18312,-1.36307 -2.53338,-2.50758 -4.05078,-3.43352 -1.49175,-0.95155 -3.15064,-1.68456 -4.97667,-2.19899 -1.8261,-0.51433 -3.8322,-0.77153 -6.01831,-0.77159 -2.95772,6e-5 -5.70968,0.56589 -8.25586,1.69748 -2.52051,1.10598 -4.7195,2.66199 -6.597,4.66804 -1.85179,2.00615 -3.30493,4.38517 -4.35941,7.13709 -1.0545,2.752 -1.58173,5.76116 -1.58173,9.02745 0,3.34355 0.54008,6.46843 1.6203,9.37468 1.0802,2.88057 2.5462,5.38819 4.39801,7.52287 1.87748,2.10901 4.07648,3.76789 6.59698,4.97668 2.54618,1.20882 5.27242,1.81321 8.17871,1.81321 2.26327,0 4.37225,-0.36007 6.32694,-1.0802 1.95462,-0.72014 3.72925,-1.71032 5.32388,-2.97058 1.62027,-1.26023 3.0477,-2.73909 4.28226,-4.43657 1.2602,-1.72317 2.30182,-3.57496 3.12489,-5.55535 0.12858,-0.2829 0.28287,-0.52723 0.46295,-0.73301 0.2057,-0.20573 0.50148,-0.30862 0.88732,-0.30864 l 3.8193,0 c 0.30857,2e-5 0.55291,0.0772 0.73299,0.23148 0.17995,0.12859 0.30859,0.29579 0.3858,0.50154 0.10291,0.20576 0.14143,0.43723 0.11575,0.69441 -6e-5,0.2315 -0.0387,0.46296 -0.11575,0.69441"
         style="font-size:40px;font-style:normal;font-variant:normal;font-weight:normal;font-stretch:normal;line-height:125%;letter-spacing:0px;word-spacing:0px;fill:#ffffff;fill-opacity:1;stroke:none;font-family:Gravity;-inkscape-font-specification:Gravity"
         id="path3161"
         inkscape:connector-curvature="0" />
      <path
         d="m 272.41696,910.18834 c -0.0231,3.03487 -0.54177,5.61965 -1.55601,7.75435 -1.01432,2.10898 -2.37439,3.84503 -4.08021,5.20815 -1.68282,1.33739 -3.65378,2.31472 -5.91284,2.93198 -2.23608,0.61726 -4.5989,0.92589 -7.08851,0.92589 -1.29094,0 -2.6395,-0.12858 -4.04565,-0.38578 -1.40619,-0.2572 -2.81236,-0.6687 -4.21851,-1.23452 -1.38314,-0.56583 -2.73168,-1.28596 -4.04565,-2.16042 -1.31397,-0.87446 -2.50114,-1.91608 -3.56151,-3.12489 -1.06043,-1.23452 -1.97097,-2.64907 -2.73168,-4.24368 -0.73767,-1.59457 -1.25635,-3.39492 -1.55601,-5.40103 -0.0229,-0.46294 0.046,-0.83586 0.20746,-1.11879 0.18449,-0.30862 0.50714,-0.46294 0.96818,-0.46296 l 3.1812,0 c 0.25354,2e-5 0.48407,0.10291 0.69155,0.30863 0.23051,0.18014 0.38036,0.41154 0.44953,0.69443 0.36882,1.74892 1.01426,3.33065 1.93636,4.7452 0.92208,1.38885 2.02857,2.57194 3.31949,3.54926 1.2909,0.97733 2.73166,1.72318 4.32228,2.23757 1.59056,0.5144 3.23877,0.77159 4.94463,0.77157 1.68278,2e-5 3.331,-0.19298 4.94467,-0.57868 1.61363,-0.41151 3.04286,-1.02877 4.28769,-1.85179 1.26783,-0.84872 2.28211,-1.91606 3.04288,-3.20204 0.76068,-1.28594 1.14103,-2.82909 1.14107,-4.62946 -4e-5,-1.85177 -0.39193,-3.38207 -1.17566,-4.59089 -0.78379,-1.23451 -1.82115,-2.25041 -3.11203,-3.04773 -1.29093,-0.82299 -2.76626,-1.49168 -4.42599,-2.0061 -1.63672,-0.51437 -3.30799,-0.99016 -5.01383,-1.42742 -2.23607,-0.54007 -4.40294,-1.19591 -6.50067,-1.96752 -2.07469,-0.77154 -3.91885,-1.76173 -5.53248,-2.97058 -1.5906,-1.23448 -2.86998,-2.73906 -3.83816,-4.51371 -0.96821,-1.7746 -1.4523,-3.92215 -1.45228,-6.44268 -2e-5,-2.39185 0.44951,-4.50081 1.34854,-6.32694 0.89901,-1.85173 2.09774,-3.39488 3.59611,-4.62947 1.52141,-1.26018 3.26185,-2.21179 5.22129,-2.85483 1.98247,-0.66864 4.05714,-1.00298 6.22405,-1.00304 2.12076,6e-5 4.20699,0.28297 6.25865,0.84872 2.05158,0.56588 3.93032,1.44034 5.6362,2.62337 1.72887,1.18313 3.20419,2.70057 4.42599,4.55231 1.22173,1.82611 2.06312,3.99939 2.5242,6.51983 0.0691,0.38582 -0.0119,0.70731 -0.24204,0.96447 -0.23055,0.25723 -0.54175,0.38582 -0.9336,0.38578 l -3.00829,0 c -0.32277,4e-5 -0.58787,-0.11575 -0.79531,-0.34721 -0.18449,-0.25715 -0.33429,-0.57864 -0.44952,-0.96446 -0.53022,-1.62027 -1.2794,-2.98338 -2.24757,-4.08936 -0.9682,-1.13161 -2.05166,-2.04463 -3.25033,-2.7391 -1.17568,-0.69438 -2.4205,-1.19589 -3.73443,-1.50458 -1.29093,-0.30857 -2.52421,-0.4629 -3.69985,-0.46296 -1.19874,6e-5 -2.47812,0.14143 -3.83817,0.42438 -1.33704,0.28296 -2.58183,0.77163 -3.73444,1.466 -1.12954,0.66874 -2.07469,1.55606 -2.8354,2.66193 -0.73767,1.08026 -1.10649,2.43052 -1.10649,4.05078 0,1.31174 0.23051,2.46909 0.69157,3.47212 0.48407,1.00308 1.11801,1.8904 1.90178,2.66193 0.78378,0.77162 1.68281,1.44032 2.69709,2.00611 1.01429,0.54013 2.05162,1.01594 3.11203,1.4274 1.08342,0.38583 2.14382,0.70732 3.18118,0.96447 1.03732,0.25724 1.97093,0.47586 2.80083,0.65586 2.1899,0.46298 4.28765,1.05452 6.29321,1.77461 2.00549,0.69446 3.76897,1.62035 5.29043,2.77768 1.54444,1.15739 2.77774,2.6234 3.69986,4.39801 0.92204,1.74891 1.38308,3.92219 1.38312,6.51983"
         style="font-size:40px;font-style:normal;font-variant:normal;font-weight:normal;font-stretch:normal;line-height:125%;letter-spacing:0px;word-spacing:0px;fill:#ffffff;fill-opacity:1;stroke:none;font-family:Gravity;-inkscape-font-specification:Gravity"
         id="path3163"
         inkscape:connector-curvature="0" />
      <path
         d="m 333.32894,924.8483 c -6e-5,0.36006 -0.12858,0.68155 -0.3858,0.96447 -0.23152,0.25719 -0.54015,0.3858 -0.92589,0.3858 l -3.58783,0 c -0.38584,0 -0.70733,-0.12859 -0.96446,-0.3858 -0.23154,-0.25718 -0.34727,-0.56581 -0.34721,-0.9259 l 0.30863,-44.44286 c -6e-5,-0.2057 -0.0644,-0.37288 -0.19298,-0.50151 -0.10291,-0.12859 -0.23152,-0.20572 -0.38579,-0.23148 -0.15426,-0.0257 -0.30869,4e-5 -0.46295,0.0772 -0.12859,0.0772 -0.23152,0.2058 -0.30863,0.38579 l -17.32191,45.13729 c -0.12859,0.2572 -0.30867,0.4758 -0.54011,0.65584 -0.20578,0.15427 -0.45012,0.23148 -0.73299,0.23148 l -3.74215,0 c -0.6173,0 -1.04166,-0.29577 -1.2731,-0.88732 l -17.28334,-45.17587 c -0.0772,-0.17994 -0.19298,-0.29571 -0.3472,-0.34721 -0.15427,-0.077 -0.30865,-0.0899 -0.46296,-0.0385 -0.15427,0.0259 -0.29577,0.10291 -0.42436,0.23148 -0.10291,0.12858 -0.15427,0.28295 -0.15427,0.46293 l 0.30863,44.44286 c 0,0.36009 -0.12858,0.66872 -0.38578,0.92589 -0.23148,0.2572 -0.54011,0.38581 -0.92589,0.38581 l -3.58784,0 c -0.38579,0 -0.70728,-0.12859 -0.96447,-0.38581 -0.23148,-0.25717 -0.34721,-0.5658 -0.34721,-0.92589 l 0.38578,-53.66321 c 0,-0.36001 0.11575,-0.65578 0.34721,-0.8873 0.2572,-0.25713 0.56583,-0.38574 0.92589,-0.3858 l 5.90259,0 c 0.30861,6e-5 0.5658,0.0901 0.77157,0.27005 0.23145,0.18015 0.39864,0.39871 0.50153,0.65584 l 17.78484,43.97993 c 0.17995,0.46295 0.5015,0.70729 0.96447,0.73299 0.48864,2e-5 0.83587,-0.23146 1.04165,-0.69442 l 18.09347,-44.13423 c 0.10291,-0.23142 0.25716,-0.42432 0.46296,-0.57868 0.2057,-0.15427 0.45004,-0.23142 0.73299,-0.23148 l 5.90257,0 c 0.36002,6e-5 0.6558,0.12859 0.88731,0.3858 0.23142,0.23152 0.34717,0.52729 0.34721,0.8873 l 0.3858,53.62464"
         style="font-size:40px;font-style:normal;font-variant:normal;font-weight:normal;font-stretch:normal;line-height:125%;letter-spacing:0px;word-spacing:0px;fill:#ffffff;fill-opacity:1;stroke:none;font-family:Gravity;-inkscape-font-specification:Gravity"
         id="path3165"
         inkscape:connector-curvature="0" />
      <path
         style="fill:#ffffff;fill-opacity:1"
         d="m 207.4429,878.61155 c -11.78075,0 -21.29553,9.39614 -21.29553,20.9869 0,11.59076 9.51478,20.98691 21.29553,20.98691 11.78076,0 21.35727,-9.39615 21.35727,-20.98691 0,-11.59076 -9.57651,-20.9869 -21.35727,-20.9869 z m 10.49346,9.38238 c 1.86281,0 3.33321,1.53213 3.33321,3.39494 0,1.86281 -1.4704,3.39494 -3.33321,3.39494 -1.86281,0 -3.39494,-1.53213 -3.39494,-3.39494 0,-1.86281 1.53213,-3.39494 3.39494,-3.39494 z m -20.36965,1.91351 c 2.92069,0 5.24673,2.32604 5.24673,5.24673 0,2.92068 -2.32604,5.30845 -5.24673,5.30845 -2.92068,0 -5.30845,-2.38777 -5.30845,-5.30845 0,-2.92069 2.38777,-5.24673 5.30845,-5.24673 z m 25.92501,10.37 c 1.14694,0 2.03696,0.89131 2.03696,1.97524 0,1.08393 -0.89002,1.91351 -2.03696,1.91351 -1.14695,0 -2.0987,-0.82958 -2.0987,-1.91351 0,-1.08393 0.95175,-1.97524 2.0987,-1.97524 z"
         id="path3167"
         inkscape:connector-curvature="0" />
    </g>
    <path
       inkscape:connector-curvature="0"
       id="path3169"
       d="m 607.4429,648.61155 c -11.78075,0 -21.29553,9.39614 -21.29553,20.9869 0,11.59076 9.51478,20.98691 21.29553,20.98691 11.78076,0 21.35727,-9.39615 21.35727,-20.98691 0,-11.59076 -9.57651,-20.9869 -21.35727,-20.9869 z m 10.49346,9.38238 c 1.86281,0 3.33321,1.53213 3.33321,3.39494 0,1.86281 -1.4704,3.39494 -3.33321,3.39494 -1.86281,0 -3.39494,-1.53213 -3.39494,-3.39494 0,-1.86281 1.53213,-3.39494 3.39494,-3.39494 z m -20.36965,1.91351 c 2.92069,0 5.24673,2.32604 5.24673,5.24673 0,2.92068 -2.32604,5.30845 -5.24673,5.30845 -2.92068,0 -5.30845,-2.38777 -5.30845,-5.30845 0,-2.92069 2.38777,-5.24673 5.30845,-5.24673 z m 25.92501,10.37 c 1.14694,0 2.03696,0.89131 2.03696,1.97524 0,1.08393 -0.89002,1.91351 -2.03696,1.91351 -1.14695,0 -2.0987,-0.82958 -2.0987,-1.91351 0,-1.08393 0.95175,-1.97524 2.0987,-1.97524 z"
       style="fill:#7b74b9;fill-opacity:1" />
    <path
       style="fill:#ffffff;fill-opacity:1"
       d="m 607.4429,878.61155 c -11.78075,0 -21.29553,9.39614 -21.29553,20.9869 0,11.59076 9.51478,20.98691 21.29553,20.98691 11.78076,0 21.35727,-9.39615 21.35727,-20.98691 0,-11.59076 -9.57651,-20.9869 -21.35727,-20.9869 z m 10.49346,9.38238 c 1.86281,0 3.33321,1.53213 3.33321,3.39494 0,1.86281 -1.4704,3.39494 -3.33321,3.39494 -1.86281,0 -3.39494,-1.53213 -3.39494,-3.39494 0,-1.86281 1.53213,-3.39494 3.39494,-3.39494 z m -20.36965,1.91351 c 2.92069,0 5.24673,2.32604 5.24673,5.24673 0,2.92068 -2.32604,5.30845 -5.24673,5.30845 -2.92068,0 -5.30845,-2.38777 -5.30845,-5.30845 0,-2.92069 2.38777,-5.24673 5.30845,-5.24673 z m 25.92501,10.37 c 1.14694,0 2.03696,0.89131 2.03696,1.97524 0,1.08393 -0.89002,1.91351 -2.03696,1.91351 -1.14695,0 -2.0987,-0.82958 -2.0987,-1.91351 0,-1.08393 0.95175,-1.97524 2.0987,-1.97524 z"
       id="path3171"
       inkscape:connector-curvature="0" />
  </g>
</svg>
