<?xml version="1.0" encoding="UTF-8" standalone="no"?>
<!-- Created with Inkscape (http://www.inkscape.org/) -->

<svg
   xmlns:dc="http://purl.org/dc/elements/1.1/"
   xmlns:cc="http://creativecommons.org/ns#"
   xmlns:rdf="http://www.w3.org/1999/02/22-rdf-syntax-ns#"
   xmlns:svg="http://www.w3.org/2000/svg"
   xmlns="http://www.w3.org/2000/svg"
   xmlns:sodipodi="http://sodipodi.sourceforge.net/DTD/sodipodi-0.dtd"
   xmlns:inkscape="http://www.inkscape.org/namespaces/inkscape"
   width="744.09448819"
   height="1052.3622047"
   id="svg2"
   version="1.1"
   inkscape:version="0.48.4 r9939"
   sodipodi:docname="New document 1">
  <defs
     id="defs4" />
  <sodipodi:namedview
     id="base"
     pagecolor="#ffffff"
     bordercolor="#666666"
     borderopacity="1.0"
     inkscape:pageopacity="0.0"
     inkscape:pageshadow="2"
     inkscape:zoom="5.6"
     inkscape:cx="283.01668"
     inkscape:cy="429.42049"
     inkscape:document-units="px"
     inkscape:current-layer="layer1"
     showgrid="false"
     inkscape:window-width="1219"
     inkscape:window-height="641"
     inkscape:window-x="141"
     inkscape:window-y="48"
     inkscape:window-maximized="0" />
  <metadata
     id="metadata7">
    <rdf:RDF>
      <cc:Work
         rdf:about="">
        <dc:format>image/svg+xml</dc:format>
        <dc:type
           rdf:resource="http://purl.org/dc/dcmitype/StillImage" />
        <dc:title></dc:title>
      </cc:Work>
    </rdf:RDF>
  </metadata>
  <g
     inkscape:label="Layer 1"
     inkscape:groupmode="layer"
     id="layer1">
    <g
       id="g3014">
      <path
         d="m 249.43639,550.38397 c -0.44274,1.38022 -1.06774,2.65626 -1.875,3.82813 -0.80732,1.15886 -1.76435,2.16146 -2.8711,3.00781 -1.09377,0.84636 -2.32424,1.51042 -3.6914,1.99219 -1.36721,0.46875 -2.83205,0.70312 -4.39454,0.70312 -1.40626,0 -2.71485,-0.18229 -3.92578,-0.54687 -1.21094,-0.37761 -2.32422,-0.89193 -3.33984,-1.54297 -1.00261,-0.66406 -1.89454,-1.44531 -2.67578,-2.34375 -0.78126,-0.91145 -1.43881,-1.90755 -1.97266,-2.98828 -0.53385,-1.08072 -0.94401,-2.22005 -1.23047,-3.41797 -0.27344,-1.21093 -0.41015,-2.44791 -0.41015,-3.71094 0,-2.05727 0.31901,-3.97785 0.95703,-5.76172 0.63802,-1.79685 1.54947,-3.35935 2.73437,-4.6875 1.18489,-1.3281 2.61067,-2.37627 4.27735,-3.14453 1.66665,-0.7682 3.52863,-1.15231 5.58593,-1.15234 1.48436,3e-5 2.87108,0.20836 4.16016,0.625 1.30206,0.40367 2.48045,0.96357 3.53516,1.67968 1.05466,0.71618 1.96612,1.56253 2.73437,2.53907 0.78123,0.96356 1.39971,2.01174 1.85547,3.14453 0.11716,0.26044 0.11065,0.4883 -0.0195,0.68359 -0.13024,0.19533 -0.32555,0.29299 -0.58594,0.29297 l -1.71875,0 c -0.18231,2e-5 -0.32554,-0.039 -0.42969,-0.11719 -0.10419,-0.0781 -0.20184,-0.2018 -0.29296,-0.37109 -0.46878,-0.85935 -1.00914,-1.62758 -1.6211,-2.30469 -0.59898,-0.69008 -1.28257,-1.26951 -2.05078,-1.73828 -0.75523,-0.48174 -1.59507,-0.85284 -2.51953,-1.11328 -0.9245,-0.26039 -1.94012,-0.3906 -3.04688,-0.39063 -1.4974,3e-5 -2.89063,0.28649 -4.17968,0.85938 -1.27605,0.55992 -2.38933,1.34768 -3.33985,2.36328 -0.9375,1.01565 -1.67318,2.22007 -2.20703,3.61328 -0.53386,1.39325 -0.80078,2.91669 -0.80078,4.57031 0,1.69273 0.27343,3.27476 0.82031,4.7461 0.54687,1.45834 1.28906,2.72787 2.22657,3.80859 0.95051,1.06772 2.06379,1.90756 3.33984,2.51953 1.28905,0.61199 2.66926,0.91797 4.14062,0.91797 1.14582,0 2.21353,-0.18229 3.20313,-0.54687 0.98956,-0.36458 1.888,-0.86588 2.69531,-1.50391 0.82029,-0.63801 1.54295,-1.38671 2.16797,-2.24609 0.638,-0.87239 1.16534,-1.80989 1.58203,-2.8125 0.0651,-0.14322 0.14321,-0.26692 0.23438,-0.3711 0.10414,-0.10415 0.25388,-0.15624 0.44922,-0.15625 l 1.93359,0 c 0.15622,10e-6 0.27992,0.0391 0.37109,0.11719 0.0911,0.0651 0.15623,0.14975 0.19532,0.25391 0.0521,0.10417 0.0716,0.22136 0.0586,0.35156 -3e-5,0.1172 -0.0196,0.23438 -0.0586,0.35156"
         style="font-size:40px;font-style:normal;font-variant:normal;font-weight:normal;font-stretch:normal;line-height:125%;letter-spacing:0px;word-spacing:0px;fill:#000000;fill-opacity:1;stroke:none;font-family:Gravity;-inkscape-font-specification:Gravity"
         id="path2990"
         inkscape:connector-curvature="0" />
      <path
         transform="matrix(1.0327869,0,0,1.0327869,-8.6124114,-17.243137)"
         d="m 273.74999,548.79077 a 11.071428,10.892858 0 1 1 -22.14286,0 11.071428,10.892858 0 1 1 22.14286,0 z"
         sodipodi:ry="10.892858"
         sodipodi:rx="11.071428"
         sodipodi:cy="548.79077"
         sodipodi:cx="262.67856"
         id="path3002"
         style="fill:#000000"
         sodipodi:type="arc" />
      <path
         d="m 295.56198,551.3996 c -0.0117,1.53646 -0.27428,2.84505 -0.78776,3.92578 -0.51352,1.06771 -1.20208,1.94662 -2.06568,2.63672 -0.85196,0.67708 -1.84979,1.17187 -2.99348,1.48437 -1.13206,0.3125 -2.32828,0.46875 -3.58869,0.46875 -0.65356,0 -1.33629,-0.0651 -2.04818,-0.19531 -0.71191,-0.13021 -1.42381,-0.33854 -2.1357,-0.625 -0.70024,-0.28646 -1.38296,-0.65104 -2.04818,-1.09375 -0.66522,-0.44271 -1.26625,-0.97005 -1.80308,-1.58203 -0.53686,-0.625 -0.99784,-1.34114 -1.38296,-2.14844 -0.37346,-0.80728 -0.63605,-1.71874 -0.78776,-2.73437 -0.0116,-0.23437 0.0233,-0.42317 0.10503,-0.56641 0.0934,-0.15624 0.25675,-0.23437 0.49016,-0.23438 l 1.61054,0 c 0.12836,10e-6 0.24507,0.0521 0.35011,0.15625 0.1167,0.0912 0.19256,0.20835 0.22758,0.35157 0.18672,0.88542 0.51349,1.6862 0.98032,2.40234 0.46682,0.70313 1.027,1.30209 1.68055,1.79688 0.65354,0.49479 1.38295,0.87239 2.18823,1.13281 0.80525,0.26042 1.63969,0.39063 2.50331,0.39062 0.85194,10e-6 1.68638,-0.0977 2.50333,-0.29297 0.81693,-0.20833 1.5405,-0.52083 2.17072,-0.9375 0.64186,-0.42968 1.15536,-0.97004 1.54051,-1.62109 0.38511,-0.65103 0.57767,-1.43228 0.57769,-2.34375 -2e-5,-0.93749 -0.19842,-1.71223 -0.5952,-2.32422 -0.39681,-0.62499 -0.92199,-1.13931 -1.57552,-1.54297 -0.65356,-0.41665 -1.40047,-0.75519 -2.24074,-1.01562 -0.82862,-0.26041 -1.67473,-0.50129 -2.53834,-0.72266 -1.13205,-0.27342 -2.22907,-0.60545 -3.29108,-0.99609 -1.05035,-0.39061 -1.98399,-0.89191 -2.80092,-1.50391 -0.80527,-0.62498 -1.45298,-1.3867 -1.94314,-2.28515 -0.49017,-0.89842 -0.73525,-1.98566 -0.73524,-3.26172 -10e-6,-1.21092 0.22757,-2.27862 0.68272,-3.20313 0.45514,-0.93747 1.06202,-1.71872 1.8206,-2.34375 0.77024,-0.63799 1.65137,-1.11976 2.64337,-1.44531 1.00366,-0.33851 2.054,-0.50778 3.15104,-0.50781 1.07367,3e-5 2.12986,0.14326 3.16855,0.42968 1.03865,0.28649 1.9898,0.7292 2.85343,1.32813 0.87527,0.59898 1.62218,1.36721 2.24074,2.30469 0.61852,0.9245 1.04449,2.02476 1.27792,3.30078 0.035,0.19533 -0.006,0.35809 -0.12254,0.48828 -0.11672,0.13023 -0.27427,0.19533 -0.47265,0.19531 l -1.523,0 c -0.16341,2e-5 -0.29762,-0.0586 -0.40264,-0.17578 -0.0934,-0.13019 -0.16924,-0.29295 -0.22758,-0.48828 -0.26843,-0.82029 -0.64772,-1.51039 -1.13787,-2.07031 -0.49017,-0.5729 -1.03869,-1.03513 -1.64554,-1.38672 -0.59521,-0.35154 -1.22542,-0.60544 -1.89062,-0.76172 -0.65356,-0.15622 -1.27793,-0.23435 -1.87312,-0.23438 -0.60688,3e-5 -1.25459,0.0716 -1.94314,0.21485 -0.6769,0.14325 -1.3071,0.39065 -1.89063,0.74219 -0.57185,0.33856 -1.05035,0.78778 -1.43547,1.34765 -0.37346,0.5469 -0.56018,1.23049 -0.56018,2.05078 0,0.66409 0.1167,1.25002 0.35012,1.75782 0.24507,0.50783 0.56601,0.95705 0.96281,1.34765 0.3968,0.39065 0.85195,0.72919 1.36545,1.01563 0.5135,0.27345 1.03867,0.51434 1.57552,0.72265 0.5485,0.19533 1.08535,0.35809 1.61053,0.48828 0.52516,0.13023 0.99782,0.24091 1.41797,0.33204 1.10868,0.23439 2.1707,0.53387 3.18605,0.89843 1.01532,0.35158 1.90811,0.82033 2.67838,1.40625 0.7819,0.58595 1.40628,1.32814 1.87312,2.22657 0.4668,0.88542 0.70021,1.98568 0.70023,3.30078"
         style="font-size:40px;font-style:normal;font-variant:normal;font-weight:normal;font-stretch:normal;line-height:125%;letter-spacing:0px;word-spacing:0px;fill:#000000;fill-opacity:1;stroke:none;font-family:Gravity;-inkscape-font-specification:Gravity"
         id="path2994"
         inkscape:connector-curvature="0" />
      <path
         d="m 326.39977,558.82147 c -3e-5,0.18229 -0.0651,0.34505 -0.19532,0.48828 -0.11721,0.13021 -0.27346,0.19532 -0.46875,0.19532 l -1.8164,0 c -0.19534,0 -0.3581,-0.0651 -0.48828,-0.19532 -0.11722,-0.1302 -0.17581,-0.28645 -0.17578,-0.46875 l 0.15625,-22.5 c -3e-5,-0.10414 -0.0326,-0.18878 -0.0977,-0.2539 -0.0521,-0.0651 -0.11721,-0.10415 -0.19531,-0.11719 -0.0781,-0.013 -0.15628,2e-5 -0.23438,0.0391 -0.0651,0.0391 -0.11721,0.10419 -0.15625,0.19531 l -8.76953,22.85157 c -0.0651,0.13021 -0.15627,0.24088 -0.27344,0.33203 -0.10418,0.0781 -0.22788,0.11719 -0.37109,0.11719 l -1.89453,0 c -0.31252,0 -0.52736,-0.14974 -0.64453,-0.44922 l -8.75,-22.8711 c -0.0391,-0.0911 -0.0977,-0.14971 -0.17578,-0.17578 -0.0781,-0.039 -0.15626,-0.0455 -0.23438,-0.0195 -0.0781,0.0131 -0.14974,0.0521 -0.21484,0.11719 -0.0521,0.0651 -0.0781,0.14325 -0.0781,0.23437 l 0.15625,22.5 c 0,0.1823 -0.0651,0.33855 -0.19531,0.46875 -0.11719,0.13021 -0.27344,0.19532 -0.46875,0.19532 l -1.81641,0 c -0.19531,0 -0.35807,-0.0651 -0.48828,-0.19532 -0.11719,-0.1302 -0.17578,-0.28645 -0.17578,-0.46875 l 0.19531,-27.16797 c 0,-0.18226 0.0586,-0.332 0.17578,-0.44921 0.13021,-0.13018 0.28646,-0.19529 0.46875,-0.19532 l 2.98829,0 c 0.15624,3e-5 0.28645,0.0456 0.39062,0.13672 0.11718,0.0912 0.20182,0.20185 0.25391,0.33203 l 9.0039,22.26563 c 0.0911,0.23438 0.25389,0.35808 0.48828,0.37109 0.24738,10e-6 0.42317,-0.11718 0.52735,-0.35156 l 9.16015,-22.34375 c 0.0521,-0.11716 0.13019,-0.21482 0.23438,-0.29297 0.10414,-0.0781 0.22784,-0.11716 0.37109,-0.11719 l 2.98828,0 c 0.18227,3e-5 0.33201,0.0651 0.44922,0.19532 0.11716,0.11721 0.17576,0.26695 0.17578,0.44921 l 0.19532,27.14844"
         style="font-size:40px;font-style:normal;font-variant:normal;font-weight:normal;font-stretch:normal;line-height:125%;letter-spacing:0px;word-spacing:0px;fill:#000000;fill-opacity:1;stroke:none;font-family:Gravity;-inkscape-font-specification:Gravity"
         id="path2996"
         inkscape:connector-curvature="0" />
      <path
         transform="matrix(1.0657895,0,0,1.0657895,-17.769032,-35.746339)"
         d="m 270.08928,545.04077 a 1.6964285,1.6964285 0 1 1 -3.39286,0 1.6964285,1.6964285 0 1 1 3.39286,0 z"
         sodipodi:ry="1.6964285"
         sodipodi:rx="1.6964285"
         sodipodi:cy="545.04077"
         sodipodi:cx="268.39285"
         id="path3004"
         style="fill:#ffffff"
         sodipodi:type="arc" />
      <path
         transform="matrix(1.6710527,0,0,1.6710527,-191.13645,-363.60383)"
         sodipodi:type="arc"
         style="fill:#ffffff"
         id="path3006"
         sodipodi:cx="268.39285"
         sodipodi:cy="545.04077"
         sodipodi:rx="1.6964285"
         sodipodi:ry="1.6964285"
         d="m 270.08928,545.04077 a 1.6964285,1.6964285 0 1 1 -3.39286,0 1.6964285,1.6964285 0 1 1 3.39286,0 z" />
      <path
         d="m 270.08928,545.04077 a 1.6964285,1.6964285 0 1 1 -3.39286,0 1.6964285,1.6964285 0 1 1 3.39286,0 z"
         sodipodi:ry="1.6964285"
         sodipodi:rx="1.6964285"
         sodipodi:cy="545.04077"
         sodipodi:cx="268.39285"
         id="path3008"
         style="fill:#ffffff"
         sodipodi:type="arc"
         transform="matrix(0.65621816,0,0,0.62016225,95.139299,212.95331)" />
    </g>
    <path
       d="m 249.43639,632.38397 c -0.44274,1.38022 -1.06774,2.65626 -1.875,3.82813 -0.80732,1.15886 -1.76435,2.16146 -2.8711,3.00781 -1.09377,0.84636 -2.32424,1.51042 -3.6914,1.99219 -1.36721,0.46875 -2.83205,0.70312 -4.39454,0.70312 -1.40626,0 -2.71485,-0.18229 -3.92578,-0.54687 -1.21094,-0.37761 -2.32422,-0.89193 -3.33984,-1.54297 -1.00261,-0.66406 -1.89454,-1.44531 -2.67578,-2.34375 -0.78126,-0.91145 -1.43881,-1.90755 -1.97266,-2.98828 -0.53385,-1.08072 -0.94401,-2.22005 -1.23047,-3.41797 -0.27344,-1.21093 -0.41015,-2.44791 -0.41015,-3.71094 0,-2.05727 0.31901,-3.97785 0.95703,-5.76172 0.63802,-1.79685 1.54947,-3.35935 2.73437,-4.6875 1.18489,-1.3281 2.61067,-2.37627 4.27735,-3.14453 1.66665,-0.7682 3.52863,-1.15231 5.58593,-1.15234 1.48436,3e-5 2.87108,0.20836 4.16016,0.625 1.30206,0.40367 2.48045,0.96357 3.53516,1.67968 1.05466,0.71618 1.96612,1.56253 2.73437,2.53907 0.78123,0.96356 1.39971,2.01174 1.85547,3.14453 0.11716,0.26044 0.11065,0.4883 -0.0195,0.68359 -0.13024,0.19533 -0.32555,0.29299 -0.58594,0.29297 l -1.71875,0 c -0.18231,2e-5 -0.32554,-0.039 -0.42969,-0.11719 -0.10419,-0.0781 -0.20184,-0.2018 -0.29296,-0.37109 -0.46878,-0.85935 -1.00914,-1.62758 -1.6211,-2.30469 -0.59898,-0.69008 -1.28257,-1.26951 -2.05078,-1.73828 -0.75523,-0.48174 -1.59507,-0.85284 -2.51953,-1.11328 -0.9245,-0.26039 -1.94012,-0.3906 -3.04688,-0.39063 -1.4974,3e-5 -2.89063,0.28649 -4.17968,0.85938 -1.27605,0.55992 -2.38933,1.34768 -3.33985,2.36328 -0.9375,1.01565 -1.67318,2.22007 -2.20703,3.61328 -0.53386,1.39325 -0.80078,2.91669 -0.80078,4.57031 0,1.69273 0.27343,3.27476 0.82031,4.7461 0.54687,1.45834 1.28906,2.72787 2.22657,3.80859 0.95051,1.06772 2.06379,1.90756 3.33984,2.51953 1.28905,0.61199 2.66926,0.91797 4.14062,0.91797 1.14582,0 2.21353,-0.18229 3.20313,-0.54687 0.98956,-0.36458 1.888,-0.86588 2.69531,-1.50391 0.82029,-0.63801 1.54295,-1.38671 2.16797,-2.24609 0.638,-0.87239 1.16534,-1.80989 1.58203,-2.8125 0.0651,-0.14322 0.14321,-0.26692 0.23438,-0.3711 0.10414,-0.10415 0.25388,-0.15624 0.44922,-0.15625 l 1.93359,0 c 0.15622,10e-6 0.27992,0.0391 0.37109,0.11719 0.0911,0.0651 0.15623,0.14975 0.19532,0.25391 0.0521,0.10417 0.0716,0.22136 0.0586,0.35156 -3e-5,0.1172 -0.0196,0.23438 -0.0586,0.35156"
       style="font-size:40px;font-style:normal;font-variant:normal;font-weight:normal;font-stretch:normal;line-height:125%;letter-spacing:0px;word-spacing:0px;fill:#000000;fill-opacity:1;stroke:none;font-family:Gravity;-inkscape-font-specification:Gravity"
       id="path3025"
       inkscape:connector-curvature="0" />
    <path
       transform="matrix(1.0327869,0,0,1.0327869,-8.6124114,64.756863)"
       d="m 273.74999,548.79077 a 11.071428,10.892858 0 1 1 -22.14286,0 11.071428,10.892858 0 1 1 22.14286,0 z"
       sodipodi:ry="10.892858"
       sodipodi:rx="11.071428"
       sodipodi:cy="548.79077"
       sodipodi:cx="262.67856"
       id="path3027"
       style="fill:#7b74b9;fill-opacity:1"
       sodipodi:type="arc" />
    <path
       d="m 295.56198,633.3996 c -0.0117,1.53646 -0.27428,2.84505 -0.78776,3.92578 -0.51352,1.06771 -1.20208,1.94662 -2.06568,2.63672 -0.85196,0.67708 -1.84979,1.17187 -2.99348,1.48437 -1.13206,0.3125 -2.32828,0.46875 -3.58869,0.46875 -0.65356,0 -1.33629,-0.0651 -2.04818,-0.19531 -0.71191,-0.13021 -1.42381,-0.33854 -2.1357,-0.625 -0.70024,-0.28646 -1.38296,-0.65104 -2.04818,-1.09375 -0.66522,-0.44271 -1.26625,-0.97005 -1.80308,-1.58203 -0.53686,-0.625 -0.99784,-1.34114 -1.38296,-2.14844 -0.37346,-0.80728 -0.63605,-1.71874 -0.78776,-2.73437 -0.0116,-0.23437 0.0233,-0.42317 0.10503,-0.56641 0.0934,-0.15624 0.25675,-0.23437 0.49016,-0.23438 l 1.61054,0 c 0.12836,10e-6 0.24507,0.0521 0.35011,0.15625 0.1167,0.0912 0.19256,0.20835 0.22758,0.35157 0.18672,0.88542 0.51349,1.6862 0.98032,2.40234 0.46682,0.70313 1.027,1.30209 1.68055,1.79688 0.65354,0.49479 1.38295,0.87239 2.18823,1.13281 0.80525,0.26042 1.63969,0.39063 2.50331,0.39062 0.85194,10e-6 1.68638,-0.0977 2.50333,-0.29297 0.81693,-0.20833 1.5405,-0.52083 2.17072,-0.9375 0.64186,-0.42968 1.15536,-0.97004 1.54051,-1.62109 0.38511,-0.65103 0.57767,-1.43228 0.57769,-2.34375 -2e-5,-0.93749 -0.19842,-1.71223 -0.5952,-2.32422 -0.39681,-0.62499 -0.92199,-1.13931 -1.57552,-1.54297 -0.65356,-0.41665 -1.40047,-0.75519 -2.24074,-1.01562 -0.82862,-0.26041 -1.67473,-0.50129 -2.53834,-0.72266 -1.13205,-0.27342 -2.22907,-0.60545 -3.29108,-0.99609 -1.05035,-0.39061 -1.98399,-0.89191 -2.80092,-1.50391 -0.80527,-0.62498 -1.45298,-1.3867 -1.94314,-2.28515 -0.49017,-0.89842 -0.73525,-1.98566 -0.73524,-3.26172 -10e-6,-1.21092 0.22757,-2.27862 0.68272,-3.20313 0.45514,-0.93747 1.06202,-1.71872 1.8206,-2.34375 0.77024,-0.63799 1.65137,-1.11976 2.64337,-1.44531 1.00366,-0.33851 2.054,-0.50778 3.15104,-0.50781 1.07367,3e-5 2.12986,0.14326 3.16855,0.42968 1.03865,0.28649 1.9898,0.7292 2.85343,1.32813 0.87527,0.59898 1.62218,1.36721 2.24074,2.30469 0.61852,0.9245 1.04449,2.02476 1.27792,3.30078 0.035,0.19533 -0.006,0.35809 -0.12254,0.48828 -0.11672,0.13023 -0.27427,0.19533 -0.47265,0.19531 l -1.523,0 c -0.16341,2e-5 -0.29762,-0.0586 -0.40264,-0.17578 -0.0934,-0.13019 -0.16924,-0.29295 -0.22758,-0.48828 -0.26843,-0.82029 -0.64772,-1.51039 -1.13787,-2.07031 -0.49017,-0.5729 -1.03869,-1.03513 -1.64554,-1.38672 -0.59521,-0.35154 -1.22542,-0.60544 -1.89062,-0.76172 -0.65356,-0.15622 -1.27793,-0.23435 -1.87312,-0.23438 -0.60688,3e-5 -1.25459,0.0716 -1.94314,0.21485 -0.6769,0.14325 -1.3071,0.39065 -1.89063,0.74219 -0.57185,0.33856 -1.05035,0.78778 -1.43547,1.34765 -0.37346,0.5469 -0.56018,1.23049 -0.56018,2.05078 0,0.66409 0.1167,1.25002 0.35012,1.75782 0.24507,0.50783 0.56601,0.95705 0.96281,1.34765 0.3968,0.39065 0.85195,0.72919 1.36545,1.01563 0.5135,0.27345 1.03867,0.51434 1.57552,0.72265 0.5485,0.19533 1.08535,0.35809 1.61053,0.48828 0.52516,0.13023 0.99782,0.24091 1.41797,0.33204 1.10868,0.23439 2.1707,0.53387 3.18605,0.89843 1.01532,0.35158 1.90811,0.82033 2.67838,1.40625 0.7819,0.58595 1.40628,1.32814 1.87312,2.22657 0.4668,0.88542 0.70021,1.98568 0.70023,3.30078"
       style="font-size:40px;font-style:normal;font-variant:normal;font-weight:normal;font-stretch:normal;line-height:125%;letter-spacing:0px;word-spacing:0px;fill:#000000;fill-opacity:1;stroke:none;font-family:Gravity;-inkscape-font-specification:Gravity"
       id="path3029"
       inkscape:connector-curvature="0" />
    <path
       d="m 326.39977,640.82147 c -3e-5,0.18229 -0.0651,0.34505 -0.19532,0.48828 -0.11721,0.13021 -0.27346,0.19532 -0.46875,0.19532 l -1.8164,0 c -0.19534,0 -0.3581,-0.0651 -0.48828,-0.19532 -0.11722,-0.1302 -0.17581,-0.28645 -0.17578,-0.46875 l 0.15625,-22.5 c -3e-5,-0.10414 -0.0326,-0.18878 -0.0977,-0.2539 -0.0521,-0.0651 -0.11721,-0.10415 -0.19531,-0.11719 -0.0781,-0.013 -0.15628,2e-5 -0.23438,0.0391 -0.0651,0.0391 -0.11721,0.10419 -0.15625,0.19531 l -8.76953,22.85157 c -0.0651,0.13021 -0.15627,0.24088 -0.27344,0.33203 -0.10418,0.0781 -0.22788,0.11719 -0.37109,0.11719 l -1.89453,0 c -0.31252,0 -0.52736,-0.14974 -0.64453,-0.44922 l -8.75,-22.8711 c -0.0391,-0.0911 -0.0977,-0.14971 -0.17578,-0.17578 -0.0781,-0.039 -0.15626,-0.0455 -0.23438,-0.0195 -0.0781,0.0131 -0.14974,0.0521 -0.21484,0.11719 -0.0521,0.0651 -0.0781,0.14325 -0.0781,0.23437 l 0.15625,22.5 c 0,0.1823 -0.0651,0.33855 -0.19531,0.46875 -0.11719,0.13021 -0.27344,0.19532 -0.46875,0.19532 l -1.81641,0 c -0.19531,0 -0.35807,-0.0651 -0.48828,-0.19532 -0.11719,-0.1302 -0.17578,-0.28645 -0.17578,-0.46875 l 0.19531,-27.16797 c 0,-0.18226 0.0586,-0.332 0.17578,-0.44921 0.13021,-0.13018 0.28646,-0.19529 0.46875,-0.19532 l 2.98829,0 c 0.15624,3e-5 0.28645,0.0456 0.39062,0.13672 0.11718,0.0912 0.20182,0.20185 0.25391,0.33203 l 9.0039,22.26563 c 0.0911,0.23438 0.25389,0.35808 0.48828,0.37109 0.24738,10e-6 0.42317,-0.11718 0.52735,-0.35156 l 9.16015,-22.34375 c 0.0521,-0.11716 0.13019,-0.21482 0.23438,-0.29297 0.10414,-0.0781 0.22784,-0.11716 0.37109,-0.11719 l 2.98828,0 c 0.18227,3e-5 0.33201,0.0651 0.44922,0.19532 0.11716,0.11721 0.17576,0.26695 0.17578,0.44921 l 0.19532,27.14844"
       style="font-size:40px;font-style:normal;font-variant:normal;font-weight:normal;font-stretch:normal;line-height:125%;letter-spacing:0px;word-spacing:0px;fill:#000000;fill-opacity:1;stroke:none;font-family:Gravity;-inkscape-font-specification:Gravity"
       id="path3031"
       inkscape:connector-curvature="0" />
    <path
       transform="matrix(1.0657895,0,0,1.0657895,-17.769032,46.253661)"
       d="m 270.08928,545.04077 a 1.6964285,1.6964285 0 1 1 -3.39286,0 1.6964285,1.6964285 0 1 1 3.39286,0 z"
       sodipodi:ry="1.6964285"
       sodipodi:rx="1.6964285"
       sodipodi:cy="545.04077"
       sodipodi:cx="268.39285"
       id="path3033"
       style="fill:#ffffff"
       sodipodi:type="arc" />
    <path
       transform="matrix(1.6710527,0,0,1.6710527,-191.13645,-281.60383)"
       sodipodi:type="arc"
       style="fill:#ffffff"
       id="path3035"
       sodipodi:cx="268.39285"
       sodipodi:cy="545.04077"
       sodipodi:rx="1.6964285"
       sodipodi:ry="1.6964285"
       d="m 270.08928,545.04077 a 1.6964285,1.6964285 0 1 1 -3.39286,0 1.6964285,1.6964285 0 1 1 3.39286,0 z" />
    <path
       d="m 270.08928,545.04077 a 1.6964285,1.6964285 0 1 1 -3.39286,0 1.6964285,1.6964285 0 1 1 3.39286,0 z"
       sodipodi:ry="1.6964285"
       sodipodi:rx="1.6964285"
       sodipodi:cy="545.04077"
       sodipodi:cx="268.39285"
       id="path3037"
       style="fill:#ffffff"
       sodipodi:type="arc"
       transform="matrix(0.65621816,0,0,0.62016225,95.139299,294.95331)" />
  </g>
</svg>
